<?xml version="1.0" encoding="UTF-8"?>
<svg width="110px" height="56px" viewBox="0 0 110 56" version="1.1" xmlns="http://www.w3.org/2000/svg" xmlns:xlink="http://www.w3.org/1999/xlink">
    <!-- Generator: Sketch 53 (72520) - https://sketchapp.com -->
    <title>Art</title>
    <desc>Created with Sketch.</desc>
    <g id="Page-1" stroke="none" stroke-width="1" fill="none" fill-rule="evenodd">
        <g id="WEB1280" transform="translate(-40.000000, -662.000000)" fill="#B7B7B7" fill-rule="nonzero">
            <g id="ART-tab" transform="translate(40.000000, 640.000000)">
                <path d="M21.7113402,22 L32.2886598,22 L54,78 L44.0589102,78 L38.8895434,63.9607843 L15.1104566,63.9607843 L9.94108984,78 L0,78 L21.7113402,22 Z M19,57 L37,57 L28.1965066,32 L27.8820961,32 L19,57 Z M77.9514563,36 C79.8932039,36 81.6019417,36.3163842 83,37.0282486 L83,46.0451977 C80.9805825,45.4124294 79.1165049,45.1751412 77.2524272,45.1751412 C74.9223301,45.1751412 72.8252427,46.0451977 70.961165,47.9435028 C68.7864078,50.079096 67.776699,52.8474576 67.776699,56.3276836 L67.776699,78 L59,78 L59,37.1073446 L67.776699,37.1073446 L67.776699,42.960452 C68.8640777,40.9039548 70.1067961,39.3220339 71.5825243,38.2146893 C73.368932,36.7118644 75.4660194,36 77.9514563,36 Z M101.071429,25 L101.071429,37.9400585 L110,37.9400585 L110,45.2236842 L101.071429,45.2236842 L101.071429,67.8494152 C101.071429,68.7792398 101.226708,69.4766082 101.692547,70.0190058 C102.158385,70.4839181 102.779503,70.7163743 103.71118,70.7163743 L108.990683,70.7163743 L108.990683,78 L102.236025,78 C98.742236,78 96.1801242,77.0701754 94.5496894,75.2105263 C92.9968944,73.505848 92.2204969,71.1038012 92.2204969,67.8494152 L92.2204969,45.2236842 L85,45.2236842 L85,37.9400585 L92.2204969,37.9400585 L92.2204969,28.6418129 L101.071429,25 Z" id="Art"></path>
            </g>
        </g>
    </g>
</svg>