<?xml version="1.0" encoding="UTF-8"?>
<svg width="183px" height="56px" viewBox="0 0 183 56" version="1.1" xmlns="http://www.w3.org/2000/svg" xmlns:xlink="http://www.w3.org/1999/xlink">
    <!-- Generator: Sketch 53 (72520) - https://sketchapp.com -->
    <title>Code Copy</title>
    <desc>Created with Sketch.</desc>
    <g id="Page-1" stroke="none" stroke-width="1" fill="none" fill-rule="evenodd">
        <g id="WEB1280" transform="translate(-652.000000, -662.000000)" fill="#B7B7B7" fill-rule="nonzero">
            <g id="CODE-TAB" transform="translate(652.000000, 640.000000)">
                <path d="M25.5521472,22 C31.8650307,22 37.1257669,23.6603774 41.1840491,26.9811321 C45.0920245,30.1509434 47.4217791,34.5283019 48.2484663,39.9622642 L39.6809816,39.9622642 C38.7791411,36.4150943 37.1257669,33.8490566 34.6457055,32.1886792 C32.2407975,30.5283019 29.1595092,29.7735849 25.4018405,29.7735849 C19.7653374,29.7735849 15.5567485,31.6603774 12.7009202,35.5849057 C10.0705521,39.0566038 8.79294479,43.8867925 8.79294479,50.0754717 C8.79294479,56.4150943 10.0705521,61.3207547 12.6257669,64.7169811 C15.4064417,68.3396226 19.7653374,70.2264151 25.6273006,70.2264151 C29.4601227,70.2264151 32.6165644,69.245283 35.0214724,67.4339623 C37.5766871,65.3962264 39.3803681,62.3018868 40.4325153,58.2264151 L49,58.2264151 C47.797546,64.5660377 45.0168712,69.4716981 40.5828221,73.0188679 C36.4493865,76.3396226 31.4892638,78 25.702454,78 C16.7592025,78 10.0705521,75.1320755 5.71165644,69.5471698 C1.87883436,64.7169811 0,58.2264151 0,50.0754717 C0,42.0754717 1.95398773,35.509434 5.93711656,30.5283019 C10.446319,24.7924528 16.9846626,22 25.5521472,22 Z M74.5,37 C80.35,37 85.075,38.8807339 88.675,42.7926606 C92.2,46.6293578 94,51.5192661 94,57.5376147 C94,63.4807339 92.2,68.3706422 88.75,72.1321101 C85.15,76.0440367 80.35,78 74.5,78 C68.575,78 63.85,76.0440367 60.25,72.1321101 C56.725,68.3706422 55,63.4807339 55,57.5376147 C55,51.5192661 56.725,46.6293578 60.325,42.7926606 C63.85,38.8807339 68.575,37 74.5,37 Z M74.9616725,44 C71.28223,44 68.5226481,45.3537604 66.5296167,48.2116992 C64.8432056,50.6183844 64,53.7771588 64,57.5376045 C64,61.2980501 64.8432056,64.3816156 66.5296167,66.7883008 C68.5226481,69.5710306 71.28223,71 74.9616725,71 C78.5644599,71 81.4006969,69.5710306 83.3937282,66.7883008 C85.0801394,64.3064067 86,61.2228412 86,57.5376045 C86,53.7771588 85.0801394,50.6183844 83.3937282,48.2116992 C81.4006969,45.3537604 78.5644599,44 74.9616725,44 Z M129.370518,22 L138,22 L138,76.9433962 L129.976096,76.9433962 L129.976096,72.7924528 C127.250996,76.2641509 123.314741,78 118.167331,78 C112.338645,78 107.796813,75.9622642 104.541833,71.8867925 C101.513944,68.1132075 100,63.2075472 100,57.245283 C100,51.509434 101.438247,46.754717 104.466135,42.9811321 C107.645418,38.9056604 112.111554,36.8679245 117.713147,36.8679245 C122.25498,36.8679245 126.115538,38.9811321 129.370518,43.2830189 L129.370518,22 Z M119.996364,44 C116.025455,44 113.2,45.2714681 111.367273,47.8144044 C109.763636,49.9833795 109,53.1246537 109,57.3130194 C109,61.501385 109.687273,64.7174515 111.214545,66.9612188 C112.970909,69.6537396 115.796364,71 119.690909,71 C123.050909,71 125.723636,69.6537396 127.556364,67.0360111 C129.16,64.6426593 130,61.501385 130,57.7617729 L130,57.1634349 C130,53.0498615 128.930909,49.7590028 126.945455,47.365651 C125.112727,45.1218837 122.745455,44 119.996364,44 Z M163.737673,37 C170.108481,37 174.980276,39.106422 178.353057,43.4697248 C181.426036,47.3816514 183,52.8733945 183,59.8697248 L153.994083,59.8697248 C154.293886,63.4807339 155.268245,66.2642202 156.91716,68.1449541 C158.566075,70.0256881 160.964497,71.0036697 164.037475,71.0036697 C166.66075,71.0036697 168.759369,70.4018349 170.408284,69.1981651 C171.682446,68.2201835 172.806706,66.640367 173.856016,64.4587156 L182.400394,64.4587156 C181.500986,68.0697248 179.70217,71.1541284 177.003945,73.5614679 C173.556213,76.4954128 169.284024,78 164.112426,78 C158.341223,78 153.769231,76.1944954 150.39645,72.6587156 C146.798817,68.9724771 145,63.9321101 145,57.4623853 C145,51.6697248 146.648915,46.8550459 150.096647,42.9431193 C153.394477,38.9559633 157.966469,37 163.737673,37 Z M163.849624,44 C160.992481,44 158.81203,44.72 157.157895,46.304 C155.578947,47.816 154.526316,50.048 154,53 L174,53 C173.24812,46.952 169.864662,44 163.849624,44 Z" id="Code-Copy"></path>
            </g>
        </g>
    </g>
</svg>