<?xml version="1.0" encoding="UTF-8"?>
<svg width="24px" height="24px" viewBox="0 0 24 24" version="1.1" xmlns="http://www.w3.org/2000/svg" xmlns:xlink="http://www.w3.org/1999/xlink">
    <!-- Generator: Sketch 53 (72520) - https://sketchapp.com -->
    <title>JIJE图标/进入符触发</title>
    <desc>Created with Sketch.</desc>
    <g id="JIJE图标/进入符触发" stroke="none" stroke-width="1" fill="none" fill-rule="evenodd">
        <rect fill="#907F7F" x="0" y="0" width="24" height="24"></rect>
        <g id="JIJE图标/菜单触发" fill="#000000" fill-rule="nonzero" opacity="0">
            <rect id="Rectangle" x="0" y="0" width="24" height="24"></rect>
        </g>
        <path d="M12,3 C7.02991071,3 3,7.02991071 3,12 C3,16.9700893 7.02991071,21 12,21 C16.9700893,21 21,16.9700893 21,12 C21,7.02991071 16.9700893,3 12,3 Z M12,20 C7.5827957,20 4,16.4172043 4,12 C4,7.5827957 7.5827957,4 12,4 C16.4172043,4 20,7.5827957 20,12 C20,16.4172043 16.4172043,20 12,20 Z" id="Shape-Copy" fill="#000000" fill-rule="nonzero"></path>
        <path d="M10.8198533,11.9862609 L16.5936598,15.6135971 C16.9355426,15.8283815 17.0816162,16.2523307 16.9445975,16.6321228 C16.8401867,16.9215315 16.5209329,17.0715019 16.2315242,16.9670911 C16.1939881,16.9535491 16.1580157,16.9360132 16.1242264,16.9147854 L9.40721919,12.6948929 C9.33353277,12.6486002 9.26894242,12.5925909 9.21432203,12.5294015 C9.17143523,12.49296 9.13337648,12.4493594 9.10202401,12.3990361 C9.08099534,12.3652834 9.06363493,12.3293795 9.05023866,12.2919363 C8.99927014,12.1494769 8.9880955,12.0009262 9.01207462,11.8596124 C9.01990542,11.7980935 9.03452456,11.7366737 9.05628149,11.6763672 C9.08333801,11.6013712 9.12482145,11.5357387 9.17647397,11.4814697 C9.23795202,11.4010234 9.31448788,11.3304717 9.40448449,11.2744019 L16.1301475,7.08417241 C16.3917248,6.92120427 16.7358868,7.00114276 16.898855,7.26272003 C16.9198837,7.29647278 16.9372441,7.33237671 16.9506403,7.36981991 C17.0866952,7.7500994 16.9391932,8.17378351 16.5963945,8.38735429 L10.8198533,11.9862609 Z" id="Combined-Shape-Copy" fill="#DC0000" transform="translate(13.000439, 12.000000) scale(-1, 1) translate(-13.000439, -12.000000) "></path>
    </g>
</svg>