<?xml version="1.0" encoding="UTF-8"?>
<svg width="36px" height="24px" viewBox="0 0 36 24" version="1.1" xmlns="http://www.w3.org/2000/svg" xmlns:xlink="http://www.w3.org/1999/xlink">
    <!-- Generator: Sketch 53 (72520) - https://sketchapp.com -->
    <title>JIJELOGO BLACK</title>
    <desc>Created with Sketch.</desc>
    <g id="JIJELOGO-BLACK" stroke="none" stroke-width="1" fill="none" fill-rule="evenodd">
        <g id="LOGO-Copy-2">
            <rect id="Rectangle" x="0" y="0" width="36" height="24"></rect>
            <path d="M4.19227083,0 L4.19227083,0 C3.19450243,0 2.38454166,0.905551377 2.38454166,2.02268693 L2.38454166,12.2892132 L2.38454166,17.9781556 L2.38454166,18.0684218 L2.3826055,18.0684218 C2.35743541,19.997954 1.52101377,21.7086806 0.237338898,22.7911539 C-0.218949757,23.1753272 0.026942715,23.9978336 0.598755654,24 L0.617471879,24 C3.56301844,24 5.95482291,21.3519482 5.99806384,18.0684218 C5.99806384,18.0380924 6,18.0077629 6,17.9781556 L6,2.02268693 C6,0.905551377 5.19068462,0 4.19227083,0" id="Fill-1" fill="#191919"></path>
            <path d="M21.1922799,0 L21.1922799,0 C20.1938711,0 19.3845597,0.905551377 19.3845597,2.02268693 L19.3845597,12.2892132 L19.3845597,17.9781556 L19.3845597,18.0684218 L19.3826236,18.0684218 C19.3574536,19.997954 18.5210362,21.7086806 17.2373677,22.7911539 C16.7810813,23.1753272 17.0269726,23.9978336 17.5981373,24 L17.6174988,24 C20.5630306,24 22.9548231,21.3519482 22.9980638,18.0684218 C22.9980638,18.0380924 23,18.0077629 23,17.9781556 L23,2.02268693 C23,0.905551377 22.1906887,0 21.1922799,0" id="Fill-4" fill="#191919"></path>
            <path d="M12,0 L12,0 C10.8953945,0 10,0.902122217 10,2.01502738 L10,15.9849726 C10,17.0978778 10.8953945,18 12,18 C13.1046055,18 14,17.0978778 14,15.9849726 L14,2.01502738 C14,0.902122217 13.1046055,0 12,0" id="Fill-6" fill="#191919"></path>
            <path d="M33.9989284,4.02804746 C35.1041257,4.02804746 36,3.12621359 36,2.01438332 C36,0.901833873 35.1041257,0 33.9989284,0 L30.0125022,0 L30.0125022,0.00647249191 L30.0010716,0.00647249191 C28.8958743,0.00647249191 28,0.908306365 28,2.02085581 L28,15.9856167 C28,17.0981661 28.8958743,18 30.0010716,18 C30.0832291,18 30.1639578,17.9942467 30.2439721,17.9848975 L33.9989284,17.9848975 C35.1041257,17.9848975 36,17.0830636 36,15.9705142 C36,14.8586839 35.1041257,13.9568501 33.9989284,13.9568501 L32.0021432,13.9568501 L32.0021432,10.9687163 L33.9989284,10.9687163 C35.1041257,10.9687163 36,10.0668824 36,8.95577131 C36,7.84322186 35.1041257,6.94138799 33.9989284,6.94138799 L32.0021432,6.94138799 L32.0021432,4.02804746 L33.9989284,4.02804746 Z" id="Fill-8" fill="#191919"></path>
        </g>
    </g>
</svg>