<?xml version="1.0" encoding="UTF-8"?>
<svg width="24px" height="24px" viewBox="0 0 24 24" version="1.1" xmlns="http://www.w3.org/2000/svg" xmlns:xlink="http://www.w3.org/1999/xlink">
    <!-- Generator: Sketch 53 (72520) - https://sketchapp.com -->
    <title>JIJE图标/分享触发 黑</title>
    <desc>Created with Sketch.</desc>
    <g id="JIJE图标/分享触发-黑" stroke="none" stroke-width="1" fill="none" fill-rule="evenodd">
        <g id="分享触发" fill-rule="nonzero">
            <rect id="Rectangle" fill="#000000" opacity="0" x="0" y="0" width="24" height="24"></rect>
            <path d="M14.0939483,9.60680658 C12.1145224,9.60680658 10.5043261,7.99641841 10.5043261,6.01718435 C10.5043261,4.03795029 12.1144984,2.4275621 14.0939483,2.4275621 C16.0733982,2.4275621 17.6835705,4.03795027 17.6835705,6.01718435 C17.6835706,7.99641844 16.0733743,9.60680658 14.0939483,9.60680658 L14.0939483,9.60680658 Z M14.0939483,4.02293644 C12.9943898,4.02293644 12.0997004,4.91762583 12.0997004,6.01718435 C12.0997004,7.11674287 12.9943898,8.01143224 14.0939483,8.01143224 C15.1935068,8.01143224 16.0881962,7.11674285 16.0881962,6.01718435 C16.0881962,4.91762585 15.1935068,4.02293646 14.0939483,4.02293644 Z M18.8801193,21.5724379 C16.9006933,21.5724379 15.2904971,19.9620497 15.2904971,17.9826238 C15.2904971,16.0033897 16.9006933,14.3930016 18.8801193,14.3930015 C20.8595452,14.3930015 22.4697415,16.0033657 22.4697415,17.9826238 C22.4697415,19.9620497 20.8595452,21.5724379 18.8801193,21.5724379 L18.8801193,21.5724379 Z M18.8801193,15.9883759 C17.7805608,15.9883759 16.8858714,16.8830653 16.8858714,17.9826238 C16.8858714,19.0823741 17.7805608,19.9770636 18.8801193,19.9770636 C19.9796778,19.9770636 20.8743672,19.0823742 20.8743672,17.9826238 C20.8743672,16.8830653 19.9796778,15.9883759 18.8801193,15.9883759 Z" id="Shape" fill="#191919"></path>
            <path d="M6.91508756,13.5952784 C6.70007334,13.5952784 6.48585059,13.5090089 6.32849327,13.3386044 C6.02975182,13.0149199 6.04999409,12.510326 6.37367864,12.2113927 L11.5586992,7.4252217 C11.8827675,7.12648024 12.3871695,7.14713025 12.685911,7.47040706 C12.9846524,7.79409159 12.9644101,8.2986855 12.6407256,8.59761881 L7.45570502,13.3837898 C7.3086045,13.5199185 7.11551099,13.5954563 6.91508756,13.5952784 L6.91508756,13.5952784 Z M16.0889637,18.7805148 C16.0234416,18.7804738 15.9581699,18.7724276 15.8945995,18.756555 L7.91765583,16.7623072 C7.49038552,16.6553876 7.23056967,16.2222653 7.33729732,15.794995 C7.44440869,15.3671251 7.87791478,15.109084 8.30482533,15.2144446 L16.281769,17.2086925 C16.7090393,17.315612 16.9688551,17.7487344 16.8621275,18.1760047 C16.771373,18.5386148 16.4461295,18.7805148 16.0889637,18.7805148 Z" id="Shape" fill="#191919"></path>
            <path d="M5.31930551,18.9797238 C3.23003402,18.9797238 1.53025849,17.2799482 1.53025849,15.1906767 C1.53025849,13.1014052 3.23003405,11.4016297 5.31930551,11.4016297 C7.40857697,11.4016297 9.10835252,13.1014053 9.10835255,15.1906767 C9.10835257,17.2799482 7.40857699,18.9797237 5.31930551,18.9797238 Z M5.31930551,13.3958536 C4.32959252,13.3958536 3.52448241,14.2009398 3.52448241,15.1906767 C3.52448241,16.1804137 4.32956855,16.9854998 5.31930551,16.9854998 C6.30904247,16.9854998 7.11412861,16.1804137 7.11412861,15.1906767 C7.11412861,14.2009398 6.30901847,13.3958536 5.31930551,13.3958536 L5.31930551,13.3958536 Z" id="Shape" fill="#DC0000"></path>
        </g>
    </g>
</svg>