<?xml version="1.0" encoding="UTF-8"?>
<svg width="24px" height="24px" viewBox="0 0 24 24" version="1.1" xmlns="http://www.w3.org/2000/svg" xmlns:xlink="http://www.w3.org/1999/xlink">
    <!-- Generator: Sketch 53 (72520) - https://sketchapp.com -->
    <title>JIJE图标/查找触发 黑</title>
    <desc>Created with Sketch.</desc>
    <defs>
        <path d="M6.66981683,12.061 C6.10481683,12.267 5.83081683,12.929 6.11081683,13.462 L6.11081683,13.462 C7.13881683,15.419 8.83781683,16.684 10.8928168,17.024 L10.8928168,17.024 C11.4928168,17.123 12.0318168,16.631 12.0318168,16.022 L12.0318168,16.022 L12.0318168,16.02 C12.0318168,15.523 11.6658168,15.116 11.1758168,15.03 L11.1758168,15.03 C9.77281683,14.781 8.62981683,13.916 7.90481683,12.547 L7.90481683,12.547 C7.72381683,12.206 7.37581683,12 7.00881683,12 L7.00881683,12 C6.89681683,12 6.78181683,12.02 6.66981683,12.061 L6.66981683,12.061 Z" id="path-1"></path>
    </defs>
    <g id="JIJE图标/查找触发-黑" stroke="none" stroke-width="1" fill="none" fill-rule="evenodd">
        <g id="查找触发">
            <rect id="Rectangle" fill="#000000" fill-rule="nonzero" opacity="0" x="0" y="0" width="24" height="24"></rect>
            <path d="M11.154562,20.6151104 C5.93787163,20.6151104 1.69382458,16.3710634 1.69382458,11.1543731 C1.69382458,5.93789525 5.9378716,1.6938482 11.154562,1.6938482 C16.3708509,1.6938482 20.614898,5.93789523 20.614898,11.1543731 C20.614898,16.3710634 16.3708509,20.6151105 11.154562,20.6151104 Z M11.154562,3.34281832 C6.84731365,3.34281832 3.34281832,6.84712476 3.34281832,11.1543731 C3.34281832,15.4618339 6.84731365,18.9661167 11.154562,18.9661167 C15.4618103,18.9661167 18.9659042,15.4618103 18.9659042,11.1543731 C18.9659042,6.84712479 15.4618103,3.34281834 11.154562,3.34281832 Z" id="Shape" fill="#191919" fill-rule="nonzero"></path>
            <path d="M21.4816549,22.3061518 C21.2707086,22.3061518 21.0597386,22.2256451 20.8987017,22.0646082 L16.868859,18.0345295 C16.5467852,17.7126681 16.5467852,17.1905079 16.868859,16.8686466 C17.1909329,16.5465727 17.7126681,16.5465727 18.0347419,16.8686466 L22.0646082,20.8987253 C22.3866821,21.2205867 22.3866821,21.7427468 22.0646082,22.0646082 C21.9035713,22.2256452 21.6926249,22.3061518 21.4816549,22.3061518 Z" id="Path" fill="#191919" fill-rule="nonzero"></path>
            <mask id="mask-2" fill="white">
                <use xlink:href="#path-1"></use>
            </mask>
            <use id="Clip-2" fill="#DC0000" xlink:href="#path-1"></use>
        </g>
    </g>
</svg>