<?xml version="1.0" encoding="UTF-8"?>
<svg width="24px" height="24px" viewBox="0 0 24 24" version="1.1" xmlns="http://www.w3.org/2000/svg" xmlns:xlink="http://www.w3.org/1999/xlink">
    <!-- Generator: Sketch 53 (72520) - https://sketchapp.com -->
    <title>JIJE图标/消息触发 黑</title>
    <desc>Created with Sketch.</desc>
    <defs>
        <path d="M6.131,10.769 C5.566,10.975 5.292,11.637 5.572,12.17 L5.572,12.17 C6.6,14.127 8.299,15.392 10.354,15.732 L10.354,15.732 C10.954,15.831 11.493,15.339 11.493,14.73 L11.493,14.73 L11.493,14.728 C11.493,14.231 11.127,13.824 10.637,13.738 L10.637,13.738 C9.234,13.489 8.091,12.624 7.366,11.255 L7.366,11.255 C7.185,10.914 6.837,10.708 6.47,10.708 L6.47,10.708 C6.358,10.708 6.243,10.728 6.131,10.769 L6.131,10.769 Z" id="path-1"></path>
    </defs>
    <g id="JIJE图标/消息触发-黑" stroke="none" stroke-width="1" fill="none" fill-rule="evenodd">
        <g id="消息触发">
            <rect id="Rectangle" fill="#FFFFFF" fill-rule="nonzero" opacity="0" x="0" y="0" width="24" height="24"></rect>
            <path d="M8.14581314,22.4697415 C8.02092475,22.4697624 7.89774084,22.4407543 7.7859851,22.385007 C7.51296792,22.2485807 7.34047656,21.9695972 7.34043919,21.6643915 L7.34043919,18.6316717 C3.79218891,17.1147242 1.53023449,13.9953272 1.53023449,10.5504948 C1.53023449,5.57672297 6.22675425,1.53023449 11.999976,1.53023449 C17.7731978,1.53023449 22.4697415,5.57672299 22.4697415,10.5504948 C22.4697415,15.4455999 17.9206738,19.4423461 12.2732947,19.5675892 L8.62987695,22.3079232 C8.49037929,22.4130039 8.32046002,22.4698064 8.14581314,22.4697415 Z M12,3.14098242 C7.11511195,3.14098242 3.14098242,6.46488881 3.14098242,10.5504948 C3.14098242,13.4813556 5.21535998,16.1426393 8.42541558,17.3306258 C8.74118548,17.4474266 8.95118709,17.7488543 8.95118709,18.0858498 L8.95118709,20.0506936 L11.5159362,18.1216335 C11.6554864,18.0166354 11.8253847,17.9598426 12.000024,17.9598152 C16.884912,17.9598152 20.8590416,14.6359088 20.8590416,10.5504948 C20.8590176,6.46488881 16.884888,3.14098242 12,3.14098242 Z" id="Shape" fill="#191919" fill-rule="nonzero"></path>
            <mask id="mask-2" fill="white">
                <use xlink:href="#path-1"></use>
            </mask>
            <use id="Clip-2" fill="#DC0000" xlink:href="#path-1"></use>
        </g>
    </g>
</svg>