<?xml version="1.0" encoding="UTF-8"?>
<svg width="24px" height="24px" viewBox="0 0 24 24" version="1.1" xmlns="http://www.w3.org/2000/svg" xmlns:xlink="http://www.w3.org/1999/xlink">
    <!-- Generator: Sketch 53 (72520) - https://sketchapp.com -->
    <title>JIJE图标/电话触发 黑</title>
    <desc>Created with Sketch.</desc>
    <defs>
        <path d="M13.5268064,2.27167097 C12.9618064,2.47767097 12.6878064,3.13967097 12.9678064,3.67267097 L12.9678064,3.67267097 C13.9958064,5.62967097 15.6948064,6.89467097 17.7498064,7.23467097 L17.7498064,7.23467097 C18.3498064,7.33367097 18.8888064,6.84167097 18.8888064,6.23267097 L18.8888064,6.23267097 L18.8888064,6.23067097 C18.8888064,5.73367097 18.5228064,5.32667097 18.0328064,5.24067097 L18.0328064,5.24067097 C16.6298064,4.99167097 15.4868064,4.12667097 14.7618064,2.75767097 L14.7618064,2.75767097 C14.5808064,2.41667097 14.2328064,2.21067097 13.8658064,2.21067097 L13.8658064,2.21067097 C13.7538064,2.21067097 13.6388064,2.23067097 13.5268064,2.27167097 L13.5268064,2.27167097 Z" id="path-1"></path>
    </defs>
    <g id="JIJE图标/电话触发-黑" stroke="none" stroke-width="1" fill="none" fill-rule="evenodd">
        <g id="电话触发">
            <rect id="Rectangle" fill="#000000" fill-rule="nonzero" opacity="0" x="0" y="0" width="24" height="24"></rect>
            <path d="M15.3153922,22.4697415 C11.7340443,22.4697415 8.27139199,19.9884798 5.89952013,15.5659983 C3.09997022,10.3457216 3.4097682,5.00120918 6.65284936,2.56899422 C7.71909445,1.76920847 9.15408952,1.3927597 10.3054049,1.60856538 C11.7601866,1.88135644 12.809811,4.58180555 13.1935747,5.73014695 C14.1581528,8.61555865 13.5706231,9.25868262 13.377554,9.46995537 C13.0982394,9.77519641 12.45135,10.115046 10.7548602,10.8400504 C11.2395236,12.1688215 12.2764845,13.8558138 12.8090195,14.358489 C12.8240573,14.350982 12.8394788,14.3434511 12.8553081,14.3355365 C14.4109654,13.5616532 15.3775101,13.1654179 16.0275653,13.2825304 C17.9266457,13.6267451 20.0077148,17.9083701 20.007331,19.5661022 C20.007331,20.8897168 18.5778762,21.8267854 17.676999,22.1065078 C16.890836,22.3506622 16.100356,22.4697415 15.3153922,22.4697415 L15.3153922,22.4697415 Z M17.4894224,21.3959537 L17.5147491,21.3959537 L17.4894224,21.3959537 Z M9.62963911,3.16503811 C8.99028059,3.16503811 8.20889037,3.42773201 7.62531804,3.86553117 C5.50863314,5.45265511 4.51280433,9.5514761 7.32779974,14.8000536 C9.28820658,18.4561827 12.9095113,21.8897427 17.1966767,20.5588131 C17.7984527,20.3720757 18.3867738,19.8324176 18.3867738,19.5659583 C18.3871575,18.1782591 16.5284417,15.0823661 15.76408,14.8829414 C15.5658544,14.8954129 15.0226466,15.0674962 13.5769788,15.7865767 C13.1093199,16.0190271 13.0104109,16.0682657 12.7967638,16.0682657 L12.7940057,16.0682657 C11.1825622,16.0660832 9.25578059,11.7454845 8.98238993,10.5686505 C8.83481798,9.89506713 9.35389805,9.67470455 9.90343746,9.44146268 C11.0856199,8.93960295 11.8282285,8.59459685 12.1170406,8.41359159 C12.2966549,7.21716277 10.6630504,3.47143038 9.9845265,3.19547346 C9.87336187,3.17491941 9.75425862,3.16503809 9.62963911,3.16503811 Z" id="Shape" fill="#191919" fill-rule="nonzero"></path>
            <mask id="mask-2" fill="white">
                <use xlink:href="#path-1"></use>
            </mask>
            <use id="Clip-2" fill="#DC0000" transform="translate(15.872898, 4.729037) rotate(-145.000000) translate(-15.872898, -4.729037) " xlink:href="#path-1"></use>
        </g>
    </g>
</svg>