<?xml version="1.0" encoding="UTF-8"?>
<svg width="894px" height="127px" viewBox="0 0 894 127" version="1.1" xmlns="http://www.w3.org/2000/svg" xmlns:xlink="http://www.w3.org/1999/xlink">
    <!-- Generator: Sketch 53 (72520) - https://sketchapp.com -->
    <title>线状动效1</title>
    <desc>Created with Sketch.</desc>
    <defs>
        <linearGradient x1="99.9155851%" y1="50.0422208%" x2="0.042220813%" y2="50.0422208%" id="linearGradient-1">
            <stop stop-color="#FAFAFA" offset="0.0422297297%"></stop>
            <stop stop-color="#DC0000" offset="100%"></stop>
        </linearGradient>
    </defs>
    <g id="Page-1" stroke="none" stroke-width="1" fill="none" fill-rule="evenodd">
        <g id="WEB1920" transform="translate(-666.000000, -827.000000)">
            <g id="线状动效1" transform="translate(666.000000, 768.000000)">
                <rect id="Rectangle" x="0" y="0" width="792" height="184"></rect>
                <path d="M11.9761776,183.787089 L892.5,183.787089 L892.5,131.440703 C822.502158,81.1279462 761.878354,57.6032214 710.664959,60.7842043 C667.02555,63.4947493 640.541514,71.2358679 605.199525,88.5596501 C602.5554,89.8557358 599.87026,91.1924878 596.191492,93.0388389 C595.169771,93.5516344 591.490721,95.4006408 591.627968,95.331691 C589.782509,96.2588059 588.37831,96.9627423 586.99629,97.6529194 C579.404165,101.444404 573.487514,104.307725 567.362597,107.112388 C521.427216,128.146685 471.046033,141.119334 390.910922,148.543233 C373.688235,150.138783 360.995823,149.531536 351.054152,146.987813 C343.40361,145.030309 338.627759,142.598222 330.613658,137.327688 C330.402778,137.189001 329.685654,136.71683 329.635733,136.683978 C322.311548,131.863927 318.361415,129.788051 312.096075,128.047625 C303.864875,125.761109 293.485186,125.110928 279.391397,126.331523 C237.905892,129.92438 148.735137,149.079775 11.9761776,183.787089 Z" id="Rectangle-Copy-3" stroke="url(#linearGradient-1)" stroke-width="3"></path>
            </g>
        </g>
    </g>
</svg>